<?xml version="1.0" encoding="UTF-8" standalone="no"?>
<!-- Created with Inkscape (http://www.inkscape.org/) -->
<svg id="svg5903" xmlns:rdf="http://www.w3.org/1999/02/22-rdf-syntax-ns#" xmlns="http://www.w3.org/2000/svg" xml:space="preserve" viewBox="0 0 230 300" version="1.1" xmlns:cc="http://creativecommons.org/ns#" xmlns:xlink="http://www.w3.org/1999/xlink" xmlns:dc="http://purl.org/dc/elements/1.1/"><metadata id="metadata5909"><rdf:RDF><cc:Work rdf:about=""><dc:format>image/svg+xml</dc:format><dc:type rdf:resource="http://purl.org/dc/dcmitype/StillImage"/><dc:title/></cc:Work></rdf:RDF></metadata><defs id="defs5907"><clipPath id="clipPath5917" clipPathUnits="userSpaceOnUse"><path id="path5919" d="m0,725.67,725.67,0v-725.67h-725.67v725.67z"/></clipPath><clipPath id="clipPath6019" clipPathUnits="userSpaceOnUse"><path id="path6021" d="m278.31,353.26,10.734,0c0,1.433,0.042,2.878,0.122,4.294l-10.716,0.611c-0.093-1.619-0.14-3.267-0.14-4.905"/></clipPath><linearGradient id="linearGradient6027" gradientUnits="userSpaceOnUse" gradientTransform="matrix(101.82289,5.920105,5.920105,-101.82288,311.271,357.31543)"><stop id="stop6029" stop-color="#f8b33f" offset="0"/><stop id="stop6031" stop-color="#ed7c30" offset="1"/></linearGradient><clipPath id="clipPath6039" clipPathUnits="userSpaceOnUse"><path id="path6041" d="m376.37,427.09c2.753-0.459,5.5-1.08,8.168-1.846l2.961,10.319c-3.058,0.878-6.208,1.587-9.358,2.114l-1.771-10.587zm16.089-4.605c2.571-1.059,5.113-2.284,7.555-3.631l5.188,9.398c-2.794,1.542-5.704,2.939-8.646,4.156l-4.097-9.923zm14.661-8.089c2.269-1.605,4.475-3.363,6.562-5.222l7.14,8.013c-2.383,2.126-4.906,4.133-7.499,5.969l-6.203-8.76zm12.505-11.142c1.861-2.076,3.629-4.277,5.245-6.542l8.735,6.236c-1.846,2.59-3.863,5.105-5.992,7.477l-7.988-7.171zm9.725-13.624c1.356-2.436,2.586-4.972,3.659-7.536l9.904,4.137c-1.224,2.933-2.633,5.834-4.183,8.62l-9.38-5.221zm6.445-15.439c0.776-2.673,1.41-5.419,1.88-8.164l10.578,1.815c-0.537,3.142-1.26,6.284-2.148,9.345l-10.31-2.996z"/></clipPath><linearGradient id="linearGradient6047" gradientUnits="userSpaceOnUse" gradientTransform="matrix(41.294632,2.4009247,2.4009247,-41.294632,390.52539,400.83789)"><stop id="stop6049" stop-color="#f8b33f" offset="0"/><stop id="stop6051" stop-color="#ed7c30" offset="1"/></linearGradient><clipPath id="clipPath6059" clipPathUnits="userSpaceOnUse"><path id="path6061" d="m438.64,357.56c0.081-1.416,0.122-2.861,0.122-4.294h10.735c0,1.638-0.047,3.286-0.139,4.905l-10.718-0.611z"/></clipPath><linearGradient id="linearGradient6067" gradientUnits="userSpaceOnUse" gradientTransform="matrix(101.80814,5.9192505,5.9192505,-101.80812,311.83691,347.72266)"><stop id="stop6069" stop-color="#f8b33f" offset="0"/><stop id="stop6071" stop-color="#ed7c30" offset="1"/></linearGradient><clipPath id="clipPath6079" clipPathUnits="userSpaceOnUse"><path id="path6081" d="m361.16,457.23c-1.15,0-2.083-0.641-2.083-1.428v-8.703c0-0.789,0.933-1.432,2.083-1.432h11.056c1.152,0,2.084,0.643,2.084,1.432v8.703c0,0.787-0.932,1.428-2.084,1.428h-11.056z"/></clipPath><linearGradient id="linearGradient6087" gradientUnits="userSpaceOnUse" gradientTransform="matrix(101.81377,5.9195862,5.9195862,-101.81377,306.00146,447.92334)"><stop id="stop6089" stop-color="#f8b33f" offset="0"/><stop id="stop6091" stop-color="#ed7c30" offset="1"/></linearGradient><clipPath id="clipPath6099" clipPathUnits="userSpaceOnUse"><path id="path6101" d="m352.16,472.08,0-11.139c0-0.789,0.641-1.427,1.429-1.427,0.786,0,1.422,0.638,1.422,1.427v11.139c0,0.787-0.636,1.426-1.422,1.426-0.788,0-1.429-0.639-1.429-1.426"/></clipPath><linearGradient id="linearGradient6107" gradientUnits="userSpaceOnUse" gradientTransform="matrix(101.80856,5.919281,5.919281,-101.80855,305.08691,463.68994)"><stop id="stop6109" stop-color="#f8b33f" offset="0"/><stop id="stop6111" stop-color="#ed7c30" offset="1"/></linearGradient><clipPath id="clipPath6119" clipPathUnits="userSpaceOnUse"><path id="path6121" d="m356.53,472.08,0-11.139c0-0.789,0.635-1.427,1.422-1.427,0.788,0,1.427,0.638,1.427,1.427v11.139c0,0.787-0.639,1.426-1.427,1.426-0.787,0-1.422-0.639-1.422-1.426"/></clipPath><linearGradient id="linearGradient6127" gradientUnits="userSpaceOnUse" gradientTransform="matrix(101.79996,5.9187775,5.9187775,-101.79994,305.10693,463.43799)"><stop id="stop6129" stop-color="#f8b33f" offset="0"/><stop id="stop6131" stop-color="#ed7c30" offset="1"/></linearGradient><clipPath id="clipPath6139" clipPathUnits="userSpaceOnUse"><path id="path6141" d="m360.9,472.08,0-11.139c0-0.789,0.638-1.427,1.426-1.427s1.424,0.638,1.424,1.427v11.139c0,0.787-0.636,1.426-1.424,1.426s-1.426-0.639-1.426-1.426"/></clipPath><linearGradient id="linearGradient6147" gradientUnits="userSpaceOnUse" gradientTransform="matrix(101.79434,5.918457,5.918457,-101.79434,305.125,463.18555)"><stop id="stop6149" stop-color="#f8b33f" offset="0"/><stop id="stop6151" stop-color="#ed7c30" offset="1"/></linearGradient><clipPath id="clipPath6159" clipPathUnits="userSpaceOnUse"><path id="path6161" d="m365.27,472.08,0-11.139c0-0.789,0.637-1.427,1.425-1.427,0.785,0,1.422,0.638,1.422,1.427v11.139c0,0.787-0.637,1.426-1.422,1.426-0.788,0-1.425-0.639-1.425-1.426"/></clipPath><linearGradient id="linearGradient6167" gradientUnits="userSpaceOnUse" gradientTransform="matrix(101.74869,5.915802,5.915802,-101.74867,305.16846,462.93359)"><stop id="stop6169" stop-color="#f8b33f" offset="0"/><stop id="stop6171" stop-color="#ed7c30" offset="1"/></linearGradient><clipPath id="clipPath6179" clipPathUnits="userSpaceOnUse"><path id="path6181" d="m369.63,472.08,0-11.139c0-0.789,0.639-1.427,1.423-1.427,0.79,0,1.429,0.638,1.429,1.427v11.139c0,0.787-0.639,1.426-1.429,1.426-0.784,0-1.423-0.639-1.423-1.426"/></clipPath><linearGradient id="linearGradient6187" gradientUnits="userSpaceOnUse" gradientTransform="matrix(101.85681,5.9220886,5.9220886,-101.85681,305.11621,462.67627)"><stop id="stop6189" stop-color="#f8b33f" offset="0"/><stop id="stop6191" stop-color="#ed7c30" offset="1"/></linearGradient><clipPath id="clipPath6199" clipPathUnits="userSpaceOnUse"><path id="path6201" d="m374,472.08,0-11.139c0-0.789,0.635-1.427,1.424-1.427,0.787,0,1.425,0.638,1.425,1.427v11.139c0,0.787-0.638,1.426-1.425,1.426-0.789,0-1.424-0.639-1.424-1.426"/></clipPath><linearGradient id="linearGradient6207" gradientUnits="userSpaceOnUse" gradientTransform="matrix(101.77713,5.91745,5.91745,-101.77711,305.18457,462.42578)"><stop id="stop6209" stop-color="#f8b33f" offset="0"/><stop id="stop6211" stop-color="#ed7c30" offset="1"/></linearGradient><clipPath id="clipPath6219" clipPathUnits="userSpaceOnUse"><path id="path6221" d="m378.37,472.08,0-11.139c0-0.789,0.637-1.427,1.422-1.427,0.789,0,1.426,0.638,1.426,1.427v11.139c0,0.787-0.637,1.426-1.426,1.426-0.785,0-1.422-0.639-1.422-1.426"/></clipPath><linearGradient id="linearGradient6227" gradientUnits="userSpaceOnUse" gradientTransform="matrix(101.77151,5.9171295,5.9171295,-101.7715,305.20508,462.17383)"><stop id="stop6229" stop-color="#f8b33f" offset="0"/><stop id="stop6231" stop-color="#ed7c30" offset="1"/></linearGradient><clipPath id="clipPath6239" clipPathUnits="userSpaceOnUse"><path id="path6241" d="m356.72,356.26c0-5.506,4.466-9.966,9.971-9.966,5.502,0,9.967,4.46,9.967,9.966,0,5.503-4.465,9.967-9.967,9.967-5.505,0-9.971-4.464-9.971-9.967"/></clipPath><linearGradient id="linearGradient6247" gradientUnits="userSpaceOnUse" gradientTransform="matrix(101.81453,5.919632,5.919632,-101.81453,311.69141,353.06348)"><stop id="stop6249" stop-color="#f8b33f" offset="0"/><stop id="stop6251" stop-color="#ed7c30" offset="1"/></linearGradient><clipPath id="clipPath6259" clipPathUnits="userSpaceOnUse"><path id="path6261" d="m362.91,351.69,6.849-0.202-4.929,61.407-1.92-61.205z"/></clipPath><linearGradient id="linearGradient6267" gradientUnits="userSpaceOnUse" gradientTransform="matrix(101.80614,5.9191437,5.9191437,-101.80612,310.19482,378.87061)"><stop id="stop6269" stop-color="#f8b33f" offset="0"/><stop id="stop6271" stop-color="#ed7c30" offset="1"/></linearGradient><clipPath id="clipPath6279" clipPathUnits="userSpaceOnUse"><path id="path6281" d="m277.54,353.26,12.269,0c0,40.854,33.236,74.091,74.091,74.091,3.387,0,6.134,2.747,6.134,6.135,0,3.387-2.747,6.133-6.134,6.133-47.62,0-86.36-38.741-86.36-86.359"/></clipPath><linearGradient id="linearGradient6287" gradientUnits="userSpaceOnUse" gradientTransform="matrix(101.80544,5.9190979,5.9190979,-101.80544,309.05566,395.48096)"><stop id="stop6289" stop-color="#f8b33f" offset="0"/><stop id="stop6291" stop-color="#ed7c30" offset="1"/></linearGradient><linearGradient id="linearGradient3975" y2="143.28" gradientUnits="userSpaceOnUse" x2="96.174" y1="144.09" x1="66.686"><stop id="stop3969" stop-color="#f8b133" offset="0"/><stop id="stop3971" stop-color="#f8b133" stop-opacity="0" offset="1"/></linearGradient><clipPath id="clipPath3982" clipPathUnits="userSpaceOnUse"><rect id="rect3984" transform="matrix(0,-1,1,0,0,0)" height="37.098" width="31.964" y="62.738" x="-175.69" fill="#800000"/></clipPath></defs><g id="layer3" opacity="0.11811027" transform="translate(0,-607.0851)" display="none"><rect id="rect6296" ry="18.746" height="580.38" width="434.32" y="531.17" x="-86.051" fill="#2c3e50"/></g><g id="layer5"><path id="path3181" d="m123.72,143.37a28.587,30.028,0,1,1,-0.00017,-0.10301" clip-path="url(#clipPath3982)" transform="matrix(0,2.7650154,-2.668,0,499.73119,-104.56581)" fill="url(#linearGradient3975)"/></g><g id="g5911" transform="matrix(1.25,0,0,-1.25,0,299.99989)"><g id="g5913" transform="translate(-271.78219,-243.51684)"><g id="g5915" clip-path="url(#clipPath5917)"><g id="g5921" transform="translate(289.4302,273.1523)"><path id="path5923" fill-rule="nonzero" fill="#FFF" d="m0,0c-0.269,0.104-0.552,0.19-0.853,0.264-0.3,0.071-0.574,0.108-0.821,0.108h-4.372v-7.688h5.116c0.992,0,1.762,0.344,2.309,1.037s0.822,1.537,0.822,2.527c0,0.826-0.185,1.582-0.558,2.263-0.372,0.683-0.921,1.178-1.643,1.489m6.301-20.177-3.728-0.005-8.619,11.718,0-11.718-2.883,0,0,22.941,8.494-0.091c1.633,0,2.972-0.62,4.016-1.861,1.043-1.242,1.565-2.678,1.565-4.31,0-0.867-0.15-1.674-0.449-2.419-0.299-0.744-0.791-1.428-1.47-2.045-0.765-0.62-1.602-1.065-2.51-1.334l-3.035,0.005,8.619-10.881z"/></g><g id="g5925" transform="translate(323.6577,252.9707)"><path id="path5927" fill-rule="nonzero" fill="#FFF" d="m0,0-12.463,0,0,22.94,12.463,0,0-2.479-9.703,0,0-6.789,9.703,0,0-2.357-9.703,0,0-8.836h9.703v-2.479z"/></g><g id="g5929" transform="translate(350.7847,273.0928)"><path id="path5931" fill-rule="nonzero" fill="#FFF" d="m0,0c-0.475,0.165-0.982,0.286-1.519,0.369h-3.721v-7.843h4.619c0.891,0.268,1.594,0.778,2.11,1.528,0.515,0.751,0.774,1.58,0.774,2.485,0,0.763-0.185,1.454-0.556,2.071-0.373,0.619-0.941,1.08-1.707,1.39m5.148-2.871,0-0.804c0-1.61-0.517-2.984-1.547-4.13-1.028-1.142-2.38-1.799-4.05-1.964h-4.791v-10.353h-2.821v22.94l7.44-0.09c1.633-0.189,3.004-0.782,4.11-1.782,1.103-0.999,1.659-2.273,1.659-3.817"/></g><g id="g5933" transform="translate(389.5088,264.6582)"><path id="path5935" fill-rule="nonzero" fill="#FFF" d="m0,0c0,2.63-0.95,4.854-2.854,6.676-1.901,1.823-4.184,2.732-6.85,2.732-2.627,0-4.848-0.952-6.668-2.857-1.816-1.902-2.725-4.191-2.725-6.863,0-2.627,0.944-4.85,2.834-6.661,1.892-1.811,4.181-2.715,6.868-2.715,2.624,0,4.849,0.952,6.666,2.856,1.818,1.903,2.729,4.182,2.729,6.832m2.851-0.063c0-3.393-1.194-6.285-3.58-8.676-2.387-2.391-5.276-3.586-8.666-3.586-3.43,0-6.381,1.155-8.852,3.463-2.469,2.306-3.703,5.136-3.703,8.49,0,3.393,1.193,6.284,3.579,8.676,2.389,2.391,5.277,3.586,8.667,3.586,3.432,0,6.381-1.156,8.851-3.46,2.469-2.309,3.704-5.14,3.704-8.493"/></g><g id="g5937" transform="translate(413.4434,273.1523)"><path id="path5939" fill-rule="nonzero" fill="#FFF" d="m0,0c-0.27,0.104-0.555,0.19-0.854,0.264-0.297,0.071-0.574,0.108-0.82,0.108h-4.373v-7.688h5.116c0.992,0,1.762,0.344,2.31,1.037s0.821,1.537,0.821,2.527c0,0.826-0.184,1.582-0.557,2.263-0.372,0.683-0.922,1.178-1.643,1.489m6.301-20.177-3.73-0.005-8.618,11.718,0-11.718-2.882,0,0,22.941,8.493-0.091c1.633,0,2.972-0.62,4.018-1.861,1.041-1.242,1.564-2.678,1.564-4.31,0-0.867-0.151-1.674-0.45-2.419-0.299-0.744-0.791-1.428-1.47-2.045-0.764-0.62-1.601-1.065-2.509-1.334l-3.035,0.005,8.619-10.881z"/></g><g id="g5941" transform="translate(449.6553,273.4922)"><path id="path5943" fill-rule="nonzero" fill="#FFF" d="m0,0-6.605,0,0-20.521-2.853,0,0,20.521-6.601,0,0,2.419h16.059v-2.419z"/></g><g id="g5945" transform="translate(301.1953,331.0361)"><path id="path5947" fill-rule="nonzero" fill="#FFF" d="m0,0c-0.63,0.241-1.292,0.444-1.994,0.615-0.699,0.168-1.34,0.253-1.921,0.253h-10.219v-17.976h11.959c2.318,0,4.117,0.809,5.4,2.426,1.281,1.62,1.921,3.592,1.921,5.909,0,1.93-0.434,3.699-1.304,5.292-0.871,1.594-2.154,2.752-3.842,3.481m14.73-47.171-8.714-0.015-20.15,27.398,0-27.398-6.741,0,0,53.633,19.859-0.214c3.817,0,6.946-1.451,9.388-4.35,2.439-2.899,3.659-6.259,3.659-10.074,0-2.03-0.352-3.913-1.05-5.655-0.702-1.74-1.848-3.335-3.438-4.781-1.788-1.452-3.743-2.492-5.866-3.12l-7.095,0.016,20.148-25.44z"/></g><g id="g5949" transform="translate(375.0508,336.9883)"><path id="path5951" fill-rule="nonzero" fill="#FFF" d="m0,0-0.143-36.528c0-3.188-0.896-6.246-2.684-9.168-1.786-2.923-4.106-5.137-6.957-6.633-3.96-1.786-8.07-2.681-12.321-2.681-4.253,0-8.07,0.942-11.454,2.826-3.381,1.884-5.629,4.097-6.738,6.631-1.112,2.537-1.825,4.461-2.138,5.762-0.315,1.307-0.472,2.489-0.472,3.552v36.239h6.451v-36.239c0.338-2.512,1.06-4.773,2.176-6.777,1.108-2.006,2.705-3.514,4.783-4.531,2.704-1.158,5.436-1.735,8.19-1.735,2.174,0,4.18,0.345,6.013,1.05,1.839,0.698,3.396,1.775,4.677,3.224,1.278,1.449,2.268,2.886,2.971,4.314,0.699,1.423,1.053,2.911,1.053,4.455v0.583,35.656h6.593z"/></g><g id="g5953" transform="translate(449.6348,281.4336)"><path id="path5955" fill-rule="nonzero" fill="#FFF" d="m0,0-1.307,0-39.137,43.052,0-41.894-6.019,0,0,54.942,1.513-0.012,38.79-43.097,0,41.803,6.16,0v-54.794z"/></g><g id="g5957"/></g></g><g id="g6015" transform="translate(-271.78219,-243.51684)"><g id="g6017" clip-path="url(#clipPath6019)"><g id="g6023"><g id="g6025"><path id="path6033" fill="url(#linearGradient6027)" d="m278.31,353.26,10.734,0c0,1.433,0.042,2.878,0.122,4.294l-10.716,0.611c-0.093-1.619-0.14-3.267-0.14-4.905"/></g></g></g></g><g id="g6035" transform="translate(-271.78219,-243.51684)"><g id="g6037" clip-path="url(#clipPath6039)"><g id="g6043"><g id="g6045"><path id="path6053" fill="url(#linearGradient6047)" d="m376.37,427.09c2.753-0.459,5.5-1.08,8.168-1.846l2.961,10.319c-3.058,0.878-6.208,1.587-9.358,2.114l-1.771-10.587zm16.089-4.605c2.571-1.059,5.113-2.284,7.555-3.631l5.188,9.398c-2.794,1.542-5.704,2.939-8.646,4.156l-4.097-9.923zm14.661-8.089c2.269-1.605,4.475-3.363,6.562-5.222l7.14,8.013c-2.383,2.126-4.906,4.133-7.499,5.969l-6.203-8.76zm12.505-11.142c1.861-2.076,3.629-4.277,5.245-6.542l8.735,6.236c-1.846,2.59-3.863,5.105-5.992,7.477l-7.988-7.171zm9.725-13.624c1.356-2.436,2.586-4.972,3.659-7.536l9.904,4.137c-1.224,2.933-2.633,5.834-4.183,8.62l-9.38-5.221zm6.445-15.439c0.776-2.673,1.41-5.419,1.88-8.164l10.578,1.815c-0.537,3.142-1.26,6.284-2.148,9.345l-10.31-2.996z"/></g></g></g></g><g id="g6055" transform="translate(-271.78219,-243.51684)"><g id="g6057" clip-path="url(#clipPath6059)"><g id="g6063"><g id="g6065"><path id="path6073" fill="url(#linearGradient6067)" d="m438.64,357.56c0.081-1.416,0.122-2.861,0.122-4.294h10.735c0,1.638-0.047,3.286-0.139,4.905l-10.718-0.611z"/></g></g></g></g><g id="g6075" transform="translate(-271.78219,-243.51684)"><g id="g6077" clip-path="url(#clipPath6079)"><g id="g6083"><g id="g6085"><path id="path6093" fill="url(#linearGradient6087)" d="m361.16,457.23c-1.15,0-2.083-0.641-2.083-1.428v-8.703c0-0.789,0.933-1.432,2.083-1.432h11.056c1.152,0,2.084,0.643,2.084,1.432v8.703c0,0.787-0.932,1.428-2.084,1.428h-11.056z"/></g></g></g></g><g id="g6095" transform="translate(-271.78219,-243.51684)"><g id="g6097" clip-path="url(#clipPath6099)"><g id="g6103"><g id="g6105"><path id="path6113" fill="url(#linearGradient6107)" d="m352.16,472.08,0-11.139c0-0.789,0.641-1.427,1.429-1.427,0.786,0,1.422,0.638,1.422,1.427v11.139c0,0.787-0.636,1.426-1.422,1.426-0.788,0-1.429-0.639-1.429-1.426"/></g></g></g></g><g id="g6115" transform="translate(-271.78219,-243.51684)"><g id="g6117" clip-path="url(#clipPath6119)"><g id="g6123"><g id="g6125"><path id="path6133" fill="url(#linearGradient6127)" d="m356.53,472.08,0-11.139c0-0.789,0.635-1.427,1.422-1.427,0.788,0,1.427,0.638,1.427,1.427v11.139c0,0.787-0.639,1.426-1.427,1.426-0.787,0-1.422-0.639-1.422-1.426"/></g></g></g></g><g id="g6135" transform="translate(-271.78219,-243.51684)"><g id="g6137" clip-path="url(#clipPath6139)"><g id="g6143"><g id="g6145"><path id="path6153" fill="url(#linearGradient6147)" d="m360.9,472.08,0-11.139c0-0.789,0.638-1.427,1.426-1.427s1.424,0.638,1.424,1.427v11.139c0,0.787-0.636,1.426-1.424,1.426s-1.426-0.639-1.426-1.426"/></g></g></g></g><g id="g6155" transform="translate(-271.78219,-243.51684)"><g id="g6157" clip-path="url(#clipPath6159)"><g id="g6163"><g id="g6165"><path id="path6173" fill="url(#linearGradient6167)" d="m365.27,472.08,0-11.139c0-0.789,0.637-1.427,1.425-1.427,0.785,0,1.422,0.638,1.422,1.427v11.139c0,0.787-0.637,1.426-1.422,1.426-0.788,0-1.425-0.639-1.425-1.426"/></g></g></g></g><g id="g6175" transform="translate(-271.78219,-243.51684)"><g id="g6177" clip-path="url(#clipPath6179)"><g id="g6183"><g id="g6185"><path id="path6193" fill="url(#linearGradient6187)" d="m369.63,472.08,0-11.139c0-0.789,0.639-1.427,1.423-1.427,0.79,0,1.429,0.638,1.429,1.427v11.139c0,0.787-0.639,1.426-1.429,1.426-0.784,0-1.423-0.639-1.423-1.426"/></g></g></g></g><g id="g6195" transform="translate(-271.78219,-243.51684)"><g id="g6197" clip-path="url(#clipPath6199)"><g id="g6203"><g id="g6205"><path id="path6213" fill="url(#linearGradient6207)" d="m374,472.08,0-11.139c0-0.789,0.635-1.427,1.424-1.427,0.787,0,1.425,0.638,1.425,1.427v11.139c0,0.787-0.638,1.426-1.425,1.426-0.789,0-1.424-0.639-1.424-1.426"/></g></g></g></g><g id="g6215" transform="translate(-271.78219,-243.51684)"><g id="g6217" clip-path="url(#clipPath6219)"><g id="g6223"><g id="g6225"><path id="path6233" fill="url(#linearGradient6227)" d="m378.37,472.08,0-11.139c0-0.789,0.637-1.427,1.422-1.427,0.789,0,1.426,0.638,1.426,1.427v11.139c0,0.787-0.637,1.426-1.426,1.426-0.785,0-1.422-0.639-1.422-1.426"/></g></g></g></g><g id="g6235" transform="translate(-271.78219,-243.51684)"><g id="g6237" clip-path="url(#clipPath6239)"><g id="g6243"><g id="g6245"><path id="path6253" fill="url(#linearGradient6247)" d="m356.72,356.26c0-5.506,4.466-9.966,9.971-9.966,5.502,0,9.967,4.46,9.967,9.966,0,5.503-4.465,9.967-9.967,9.967-5.505,0-9.971-4.464-9.971-9.967"/></g></g></g></g><g id="g6255" transform="translate(-271.78219,-243.51684)"><g id="g6257" clip-path="url(#clipPath6259)"><g id="g6263"><g id="g6265"><path id="path6273" fill="url(#linearGradient6267)" d="m362.91,351.69,6.849-0.202-4.929,61.407-1.92-61.205z"/></g></g></g></g><g id="g6275" transform="translate(-271.78219,-243.51684)"><g id="g6277" clip-path="url(#clipPath6279)"><g id="g6283"><g id="g6285"><path id="path6293" fill="url(#linearGradient6287)" d="m277.54,353.26,12.269,0c0,40.854,33.236,74.091,74.091,74.091,3.387,0,6.134,2.747,6.134,6.135,0,3.387-2.747,6.133-6.134,6.133-47.62,0-86.36-38.741-86.36-86.359"/></g></g></g></g></g></svg>
