<?xml version="1.0" encoding="UTF-8" standalone="no"?>
<!-- Created with Inkscape (http://www.inkscape.org/) -->
<svg id="svg3039" xmlns:rdf="http://www.w3.org/1999/02/22-rdf-syntax-ns#" xmlns="http://www.w3.org/2000/svg" xml:space="preserve" viewBox="0 0 720 140" version="1.1" xmlns:cc="http://creativecommons.org/ns#" xmlns:xlink="http://www.w3.org/1999/xlink" xmlns:dc="http://purl.org/dc/elements/1.1/"><metadata id="metadata3045"><rdf:RDF><cc:Work rdf:about=""><dc:format>image/svg+xml</dc:format><dc:type rdf:resource="http://purl.org/dc/dcmitype/StillImage"/><dc:title/></cc:Work></rdf:RDF></metadata><defs id="defs3043"><clipPath id="clipPath3053" clipPathUnits="userSpaceOnUse"><path id="path3055" d="M115.84,394.8,117.23,390c1.244,0.363,2.522,0.657,3.798,0.877l-0.844,4.919c-1.461-0.251-2.923-0.586-4.346-0.999m-8.217-3.43,2.429-4.364c1.133,0.631,2.313,1.204,3.505,1.701l-1.924,4.608c-1.364-0.571-2.714-1.224-4.01-1.945m-7.243-5.173,3.335-3.714c0.965,0.866,1.99,1.688,3.044,2.438l-2.902,4.066c-1.205-0.861-2.374-1.799-3.477-2.79m-5.922-6.646,4.075-2.886c0.746,1.055,1.564,2.082,2.43,3.053l-3.73,3.323c-0.987-1.11-1.921-2.285-2.775-3.49m-4.303-7.798,4.616-1.906c0.493,1.195,1.061,2.377,1.688,3.516l-4.371,2.412c-0.718-1.3-1.367-2.653-1.933-4.022m-2.452-8.566,4.925-0.824c0.214,1.281,0.503,2.558,0.858,3.8l-4.799,1.378c-0.408-1.423-0.739-2.889-0.984-4.354"/></clipPath><linearGradient id="linearGradient3061" gradientUnits="userSpaceOnUse" gradientTransform="matrix(0,38.181732,38.181732,0,104.36865,347.50293)"><stop id="stop3063" stop-color="#f8b33f" offset="0"/><stop id="stop3065" stop-color="#ed7c30" offset="1"/></linearGradient><clipPath id="clipPath3073" clipPathUnits="userSpaceOnUse"><path id="path3075" d="m124.4,404.22c-0.534,0-0.968-0.297-0.968-0.664v-4.05c0-0.366,0.434-0.665,0.968-0.665h5.144c0.534,0,0.968,0.299,0.968,0.665v4.05c0,0.367-0.434,0.664-0.968,0.664h-5.144z"/></clipPath><linearGradient id="linearGradient3081" gradientUnits="userSpaceOnUse" gradientTransform="matrix(0,38.187119,38.187119,0,126.96826,347.49414)"><stop id="stop3083" stop-color="#f8b33f" offset="0"/><stop id="stop3085" stop-color="#ed7c30" offset="1"/></linearGradient><clipPath id="clipPath3093" clipPathUnits="userSpaceOnUse"><path id="path3095" d="m120.21,411.12,0-5.181c0-0.366,0.296-0.663,0.664-0.663,0.365,0,0.661,0.297,0.661,0.663v5.181c0,0.366-0.296,0.664-0.661,0.664-0.368,0-0.664-0.298-0.664-0.664"/></clipPath><linearGradient id="linearGradient3101" gradientUnits="userSpaceOnUse" gradientTransform="matrix(0,38.185577,38.185577,0,120.87256,347.49707)"><stop id="stop3103" stop-color="#f8b33f" offset="0"/><stop id="stop3105" stop-color="#ed7c30" offset="1"/></linearGradient><clipPath id="clipPath3113" clipPathUnits="userSpaceOnUse"><path id="path3115" d="m122.24,411.12,0-5.181c0-0.366,0.296-0.663,0.662-0.663s0.663,0.297,0.663,0.663v5.181c0,0.366-0.297,0.664-0.663,0.664s-0.662-0.298-0.662-0.664"/></clipPath><linearGradient id="linearGradient3121" gradientUnits="userSpaceOnUse" gradientTransform="matrix(0,38.185577,38.185577,0,122.9043,347.49707)"><stop id="stop3123" stop-color="#f8b33f" offset="0"/><stop id="stop3125" stop-color="#ed7c30" offset="1"/></linearGradient><clipPath id="clipPath3133" clipPathUnits="userSpaceOnUse"><path id="path3135" d="m124.27,411.12,0-5.181c0-0.366,0.295-0.663,0.662-0.663s0.664,0.297,0.664,0.663v5.181c0,0.366-0.297,0.664-0.664,0.664s-0.662-0.298-0.662-0.664"/></clipPath><linearGradient id="linearGradient3141" gradientUnits="userSpaceOnUse" gradientTransform="matrix(0,38.185577,38.185577,0,124.93604,347.49707)"><stop id="stop3143" stop-color="#f8b33f" offset="0"/><stop id="stop3145" stop-color="#ed7c30" offset="1"/></linearGradient><clipPath id="clipPath3153" clipPathUnits="userSpaceOnUse"><path id="path3155" d="m126.3,411.12,0-5.181c0-0.366,0.297-0.663,0.662-0.663,0.367,0,0.664,0.297,0.664,0.663v5.181c0,0.366-0.297,0.664-0.664,0.664-0.365,0-0.662-0.298-0.662-0.664"/></clipPath><linearGradient id="linearGradient3161" gradientUnits="userSpaceOnUse" gradientTransform="matrix(0,38.185577,38.185577,0,126.96729,347.49707)"><stop id="stop3163" stop-color="#f8b33f" offset="0"/><stop id="stop3165" stop-color="#ed7c30" offset="1"/></linearGradient><clipPath id="clipPath3173" clipPathUnits="userSpaceOnUse"><path id="path3175" d="m128.34,411.12,0-5.181c0-0.366,0.296-0.663,0.663-0.663,0.365,0,0.663,0.297,0.663,0.663v5.181c0,0.366-0.298,0.664-0.663,0.664-0.367,0-0.663-0.298-0.663-0.664"/></clipPath><linearGradient id="linearGradient3181" gradientUnits="userSpaceOnUse" gradientTransform="matrix(0,38.185577,38.185577,0,128.99951,347.49707)"><stop id="stop3183" stop-color="#f8b33f" offset="0"/><stop id="stop3185" stop-color="#ed7c30" offset="1"/></linearGradient><clipPath id="clipPath3193" clipPathUnits="userSpaceOnUse"><path id="path3195" d="m130.37,411.12,0-5.181c0-0.366,0.297-0.663,0.663-0.663s0.661,0.297,0.661,0.663v5.181c0,0.366-0.295,0.664-0.661,0.664s-0.663-0.298-0.663-0.664"/></clipPath><linearGradient id="linearGradient3201" gradientUnits="userSpaceOnUse" gradientTransform="matrix(0,38.185577,38.185577,0,131.03076,347.49707)"><stop id="stop3203" stop-color="#f8b33f" offset="0"/><stop id="stop3205" stop-color="#ed7c30" offset="1"/></linearGradient><clipPath id="clipPath3213" clipPathUnits="userSpaceOnUse"><path id="path3215" d="m132.4,411.12,0-5.181c0-0.366,0.296-0.663,0.662-0.663,0.367,0,0.664,0.297,0.664,0.663v5.181c0,0.366-0.297,0.664-0.664,0.664-0.366,0-0.662-0.298-0.662-0.664"/></clipPath><linearGradient id="linearGradient3221" gradientUnits="userSpaceOnUse" gradientTransform="matrix(0,38.185577,38.185577,0,133.06348,347.49707)"><stop id="stop3223" stop-color="#f8b33f" offset="0"/><stop id="stop3225" stop-color="#ed7c30" offset="1"/></linearGradient><clipPath id="clipPath3233" clipPathUnits="userSpaceOnUse"><path id="path3235" d="m122.33,357.86c0-2.562,2.076-4.639,4.635-4.639,2.561,0,4.637,2.077,4.637,4.639,0,2.558-2.076,4.635-4.637,4.635-2.559,0-4.635-2.077-4.635-4.635"/></clipPath><linearGradient id="linearGradient3241" gradientUnits="userSpaceOnUse" gradientTransform="matrix(0,38.180649,38.180649,0,126.96826,347.50488)"><stop id="stop3243" stop-color="#f8b33f" offset="0"/><stop id="stop3245" stop-color="#ed7c30" offset="1"/></linearGradient><clipPath id="clipPath3253" clipPathUnits="userSpaceOnUse"><path id="path3255" d="m125.38,355.82,3.186-0.093-2.286,28.561-0.9-28.468z"/></clipPath><linearGradient id="linearGradient3261" gradientUnits="userSpaceOnUse" gradientTransform="matrix(38.183472,-0.0060577,-0.0060577,-38.183472,116.77979,370.01172)"><stop id="stop3263" stop-color="#f8b33f" offset="0"/><stop id="stop3265" stop-color="#ed7c30" offset="1"/></linearGradient><clipPath id="clipPath3273" clipPathUnits="userSpaceOnUse"><path id="path3275" d="M122.6,396.22c-21.62-1.94-37.638-21.1-35.7-42.73l0.045,0.004c-0.009-0.145-0.019-0.289-0.006-0.438,1.977-22.059,21.534-38.396,43.594-36.419,1.571,0.141,2.729,1.527,2.588,3.097-0.141,1.568-1.527,2.727-3.097,2.586-18.926-1.697-35.705,12.321-37.401,31.246-0.023,0.254-0.088,0.491-0.171,0.719-1.492,18.43,12.193,34.709,30.646,36.363,1.538,0.139,2.673,1.498,2.534,3.036-0.129,1.453-1.35,2.545-2.781,2.546-0.084,0-0.168-0.004-0.253-0.012"/></clipPath><linearGradient id="linearGradient3281" gradientUnits="userSpaceOnUse" gradientTransform="matrix(39.305115,13.946976,13.946976,-39.305115,118.46094,354.16797)"><stop id="stop3283" stop-color="#f8b33f" offset="0"/><stop id="stop3285" stop-color="#ed7c30" offset="1"/></linearGradient><clipPath id="clipPath3293" clipPathUnits="userSpaceOnUse"><path id="path3295" d="m129,390.92c1.269-0.097,2.54-0.266,3.783-0.506l0.925,4.806c-1.424,0.275-2.884,0.469-4.336,0.58l-0.372-4.88z"/></clipPath><linearGradient id="linearGradient3301" gradientUnits="userSpaceOnUse" gradientTransform="matrix(39.299545,13.945007,13.945007,-39.299545,107.90332,384.87939)"><stop id="stop3303" stop-color="#f8b33f" offset="0"/><stop id="stop3305" stop-color="#ed7c30" offset="1"/></linearGradient><clipPath id="clipPath3313" clipPathUnits="userSpaceOnUse"><path id="path3315" d="m136.49,389.48c1.212-0.377,2.416-0.829,3.58-1.342l1.973,4.478c-1.332,0.587-2.71,1.103-4.096,1.536l-1.457-4.672z"/></clipPath><linearGradient id="linearGradient3321" gradientUnits="userSpaceOnUse" gradientTransform="matrix(39.300674,13.945404,13.945404,-39.300674,109.40723,380.64111)"><stop id="stop3323" stop-color="#f8b33f" offset="0"/><stop id="stop3325" stop-color="#ed7c30" offset="1"/></linearGradient><clipPath id="clipPath3333" clipPathUnits="userSpaceOnUse"><path id="path3335" d="m158.14,369.31c0.462-1.181,0.861-1.136,1.186-2.362l4.729-0.013c-0.371,1.405-0.828,2.802-1.354,4.157l-4.561-1.782z"/></clipPath><linearGradient id="linearGradient3341" gradientUnits="userSpaceOnUse" gradientTransform="matrix(39.296112,13.943771,13.943771,-39.296097,119.11182,353.31152)"><stop id="stop3343" stop-color="#f8b33f" offset="0"/><stop id="stop3345" stop-color="#ed7c30" offset="1"/></linearGradient><clipPath id="clipPath3353" clipPathUnits="userSpaceOnUse"><path id="path3355" d="m143.48,386.4c1.097-0.637,2.168-1.346,3.191-2.105l2.917,3.93c-1.169,0.868-2.396,1.677-3.647,2.404l-2.461-4.229z"/></clipPath><linearGradient id="linearGradient3361" gradientUnits="userSpaceOnUse" gradientTransform="matrix(39.307663,13.947876,13.947876,-39.307663,111.37695,375.07178)"><stop id="stop3363" stop-color="#f8b33f" offset="0"/><stop id="stop3365" stop-color="#ed7c30" offset="1"/></linearGradient><clipPath id="clipPath3373" clipPathUnits="userSpaceOnUse"><path id="path3375" d="m154.58,376.06c0.715-1.052,1.376-2.153,1.97-3.272l4.328,2.28c-0.676,1.283-1.433,2.542-2.251,3.743l-4.047-2.751z"/></clipPath><linearGradient id="linearGradient3381" gradientUnits="userSpaceOnUse" gradientTransform="matrix(39.306625,13.94751,13.94751,-39.306625,116.31494,361.15723)"><stop id="stop3383" stop-color="#f8b33f" offset="0"/><stop id="stop3385" stop-color="#ed7c30" offset="1"/></linearGradient><clipPath id="clipPath3393" clipPathUnits="userSpaceOnUse"><path id="path3395" d="m149.61,381.85c0.93-0.867,1.822-1.795,2.648-2.756l3.712,3.186c-0.944,1.101-1.961,2.161-3.025,3.153l-3.335-3.583z"/></clipPath><linearGradient id="linearGradient3401" gradientUnits="userSpaceOnUse" gradientTransform="matrix(39.304184,13.94664,13.94664,-39.304184,113.72266,368.47021)"><stop id="stop3403" stop-color="#f8b33f" offset="0"/><stop id="stop3405" stop-color="#ed7c30" offset="1"/></linearGradient><clipPath id="clipPath3413-0" clipPathUnits="userSpaceOnUse"><path id="path3415-0" d="m0,725.67,725.67,0v-725.67h-725.67v725.67z"/></clipPath><linearGradient id="linearGradient5021" y2="44.348" gradientUnits="userSpaceOnUse" x2="59.464" y1="114.26" x1="59.833"><stop id="stop5017" stop-color="#FFF" stop-opacity="0" offset="0"/><stop id="stop5019" stop-color="#f8b133" offset="1"/></linearGradient><clipPath id="clipPath5032" clipPathUnits="userSpaceOnUse"><rect id="rect5034" height="91.314" width="38.293" y="29.724" x="21.54" fill="#f8b133"/></clipPath></defs><g id="layer2" opacity="0.68503933" transform="translate(0,-767.08508)" display="none"><rect id="rect3538" height="182.25" width="753.99" y="727.96" x="1.0414" fill="#2c3e50"/></g><g id="g3047" transform="matrix(1.25,0,0,-1.25,0,139.99992)"><g id="g3049" transform="translate(-78.315492,-307.42996)"><g id="g3051" clip-path="url(#clipPath3053)"><g id="g3057"><g id="g3059"><path id="path3067" fill="url(#linearGradient3061)" d="M115.84,394.8,117.23,390c1.244,0.363,2.522,0.657,3.798,0.877l-0.844,4.919c-1.461-0.251-2.923-0.586-4.346-0.999m-8.217-3.43,2.429-4.364c1.133,0.631,2.313,1.204,3.505,1.701l-1.924,4.608c-1.364-0.571-2.714-1.224-4.01-1.945m-7.243-5.173,3.335-3.714c0.965,0.866,1.99,1.688,3.044,2.438l-2.902,4.066c-1.205-0.861-2.374-1.799-3.477-2.79m-5.922-6.646,4.075-2.886c0.746,1.055,1.564,2.082,2.43,3.053l-3.73,3.323c-0.987-1.11-1.921-2.285-2.775-3.49m-4.303-7.798,4.616-1.906c0.493,1.195,1.061,2.377,1.688,3.516l-4.371,2.412c-0.718-1.3-1.367-2.653-1.933-4.022m-2.452-8.566,4.925-0.824c0.214,1.281,0.503,2.558,0.858,3.8l-4.799,1.378c-0.408-1.423-0.739-2.889-0.984-4.354"/></g></g></g></g><g id="g3069" transform="translate(-78.315492,-307.42996)"><g id="g3071" clip-path="url(#clipPath3073)"><g id="g3077"><g id="g3079"><path id="path3087" fill="url(#linearGradient3081)" d="m124.4,404.22c-0.534,0-0.968-0.297-0.968-0.664v-4.05c0-0.366,0.434-0.665,0.968-0.665h5.144c0.534,0,0.968,0.299,0.968,0.665v4.05c0,0.367-0.434,0.664-0.968,0.664h-5.144z"/></g></g></g></g><g id="g3089" transform="translate(-78.315492,-307.42996)"><g id="g3091" clip-path="url(#clipPath3093)"><g id="g3097"><g id="g3099"><path id="path3107" fill="url(#linearGradient3101)" d="m120.21,411.12,0-5.181c0-0.366,0.296-0.663,0.664-0.663,0.365,0,0.661,0.297,0.661,0.663v5.181c0,0.366-0.296,0.664-0.661,0.664-0.368,0-0.664-0.298-0.664-0.664"/></g></g></g></g><g id="g3109" transform="translate(-78.315492,-307.42996)"><g id="g3111" clip-path="url(#clipPath3113)"><g id="g3117"><g id="g3119"><path id="path3127" fill="url(#linearGradient3121)" d="m122.24,411.12,0-5.181c0-0.366,0.296-0.663,0.662-0.663s0.663,0.297,0.663,0.663v5.181c0,0.366-0.297,0.664-0.663,0.664s-0.662-0.298-0.662-0.664"/></g></g></g></g><g id="g3129" transform="translate(-78.315492,-307.42996)"><g id="g3131" clip-path="url(#clipPath3133)"><g id="g3137"><g id="g3139"><path id="path3147" fill="url(#linearGradient3141)" d="m124.27,411.12,0-5.181c0-0.366,0.295-0.663,0.662-0.663s0.664,0.297,0.664,0.663v5.181c0,0.366-0.297,0.664-0.664,0.664s-0.662-0.298-0.662-0.664"/></g></g></g></g><g id="g3149" transform="translate(-78.315492,-307.42996)"><g id="g3151" clip-path="url(#clipPath3153)"><g id="g3157"><g id="g3159"><path id="path3167" fill="url(#linearGradient3161)" d="m126.3,411.12,0-5.181c0-0.366,0.297-0.663,0.662-0.663,0.367,0,0.664,0.297,0.664,0.663v5.181c0,0.366-0.297,0.664-0.664,0.664-0.365,0-0.662-0.298-0.662-0.664"/></g></g></g></g><g id="g3169" transform="translate(-78.315492,-307.42996)"><g id="g3171" clip-path="url(#clipPath3173)"><g id="g3177"><g id="g3179"><path id="path3187" fill="url(#linearGradient3181)" d="m128.34,411.12,0-5.181c0-0.366,0.296-0.663,0.663-0.663,0.365,0,0.663,0.297,0.663,0.663v5.181c0,0.366-0.298,0.664-0.663,0.664-0.367,0-0.663-0.298-0.663-0.664"/></g></g></g></g><g id="g3189" transform="translate(-78.315492,-307.42996)"><g id="g3191" clip-path="url(#clipPath3193)"><g id="g3197"><g id="g3199"><path id="path3207" fill="url(#linearGradient3201)" d="m130.37,411.12,0-5.181c0-0.366,0.297-0.663,0.663-0.663s0.661,0.297,0.661,0.663v5.181c0,0.366-0.295,0.664-0.661,0.664s-0.663-0.298-0.663-0.664"/></g></g></g></g><g id="g3209" transform="translate(-78.315492,-307.42996)"><g id="g3211" clip-path="url(#clipPath3213)"><g id="g3217"><g id="g3219"><path id="path3227" fill="url(#linearGradient3221)" d="m132.4,411.12,0-5.181c0-0.366,0.296-0.663,0.662-0.663,0.367,0,0.664,0.297,0.664,0.663v5.181c0,0.366-0.297,0.664-0.664,0.664-0.366,0-0.662-0.298-0.662-0.664"/></g></g></g></g><g id="g3229" transform="translate(-78.315492,-307.42996)"><g id="g3231" clip-path="url(#clipPath3233)"><g id="g3237"><g id="g3239"><path id="path3247" fill="url(#linearGradient3241)" d="m122.33,357.86c0-2.562,2.076-4.639,4.635-4.639,2.561,0,4.637,2.077,4.637,4.639,0,2.558-2.076,4.635-4.637,4.635-2.559,0-4.635-2.077-4.635-4.635"/></g></g></g></g><g id="g3249" transform="translate(-78.315492,-307.42996)"><g id="g3251" clip-path="url(#clipPath3253)"><g id="g3257"><g id="g3259"><path id="path3267" fill="url(#linearGradient3261)" d="m125.38,355.82,3.186-0.093-2.286,28.561-0.9-28.468z"/></g></g></g></g><g id="g3269" transform="translate(-78.315492,-307.42996)"><g id="g3271" clip-path="url(#clipPath3273)"><g id="g3277"><g id="g3279"><path id="path3287" fill="url(#linearGradient3281)" d="M122.6,396.22c-21.62-1.94-37.638-21.1-35.7-42.73l0.045,0.004c-0.009-0.145-0.019-0.289-0.006-0.438,1.977-22.059,21.534-38.396,43.594-36.419,1.571,0.141,2.729,1.527,2.588,3.097-0.141,1.568-1.527,2.727-3.097,2.586-18.926-1.697-35.705,12.321-37.401,31.246-0.023,0.254-0.088,0.491-0.171,0.719-1.492,18.43,12.193,34.709,30.646,36.363,1.538,0.139,2.673,1.498,2.534,3.036-0.129,1.453-1.35,2.545-2.781,2.546-0.084,0-0.168-0.004-0.253-0.012"/></g></g></g></g><g id="g3289" transform="translate(-78.315492,-307.42996)"><g id="g3291" clip-path="url(#clipPath3293)"><g id="g3297"><g id="g3299"><path id="path3307" fill="url(#linearGradient3301)" d="m129,390.92c1.269-0.097,2.54-0.266,3.783-0.506l0.925,4.806c-1.424,0.275-2.884,0.469-4.336,0.58l-0.372-4.88z"/></g></g></g></g><g id="g3309" transform="translate(-78.315492,-307.42996)"><g id="g3311" clip-path="url(#clipPath3313)"><g id="g3317"><g id="g3319"><path id="path3327" fill="url(#linearGradient3321)" d="m136.49,389.48c1.212-0.377,2.416-0.829,3.58-1.342l1.973,4.478c-1.332,0.587-2.71,1.103-4.096,1.536l-1.457-4.672z"/></g></g></g></g><g id="g3329" transform="translate(-78.315492,-307.42996)"><g id="g3331" clip-path="url(#clipPath3333)"><g id="g3337"><g id="g3339"><path id="path3347" fill="url(#linearGradient3341)" d="m158.14,369.31c0.462-1.181,0.861-1.136,1.186-2.362l4.729-0.013c-0.371,1.405-0.828,2.802-1.354,4.157l-4.561-1.782z"/></g></g></g></g><g id="g3349" transform="translate(-78.315492,-307.42996)"><g id="g3351" clip-path="url(#clipPath3353)"><g id="g3357"><g id="g3359"><path id="path3367" fill="url(#linearGradient3361)" d="m143.48,386.4c1.097-0.637,2.168-1.346,3.191-2.105l2.917,3.93c-1.169,0.868-2.396,1.677-3.647,2.404l-2.461-4.229z"/></g></g></g></g><g id="g3369" transform="translate(-78.315492,-307.42996)"><g id="g3371" clip-path="url(#clipPath3373)"><g id="g3377"><g id="g3379"><path id="path3387" fill="url(#linearGradient3381)" d="m154.58,376.06c0.715-1.052,1.376-2.153,1.97-3.272l4.328,2.28c-0.676,1.283-1.433,2.542-2.251,3.743l-4.047-2.751z"/></g></g></g></g><g id="g3389" transform="translate(-78.315492,-307.42996)"><g id="g3391" clip-path="url(#clipPath3393)"><g id="g3397"><g id="g3399"><path id="path3407" fill="url(#linearGradient3401)" d="m149.61,381.85c0.93-0.867,1.822-1.795,2.648-2.756l3.712,3.186c-0.944,1.101-1.961,2.161-3.025,3.153l-3.335-3.583z"/></g></g></g></g></g><g id="layer6"><g id="g4881" transform="matrix(1.25,0,0,-1.25,-97.969584,524.36441)"><g id="g4883" clip-path="url(#clipPath3413-0)"><g id="g4907" transform="translate(163.5073,355.9502)"><path id="path4909" fill-rule="nonzero" fill="#FFF" d="m0,0c-0.52,0.198-1.069,0.368-1.65,0.51-0.579,0.138-1.11,0.21-1.59,0.21h-8.461v-14.885h9.901c1.92,0,3.409,0.669,4.471,2.008,1.06,1.344,1.59,2.974,1.59,4.892,0,1.6-0.358,3.063-1.078,4.382-0.721,1.321-1.784,2.28-3.183,2.883m12.198-39.061-7.215-0.01-16.684,22.686,0-22.686-5.584,0,0,44.41,16.445-0.178c3.16,0,5.75-1.201,7.774-3.601,2.019-2.401,3.029-5.183,3.029-8.344,0-1.678-0.291-3.238-0.869-4.68-0.582-1.44-1.531-2.762-2.846-3.962-1.481-1.2-3.1-2.06-4.859-2.581l-5.875,0.012,16.684-21.066z"/></g><g id="g4911" transform="translate(224.6636,360.8789)"><path id="path4913" fill-rule="nonzero" fill="#FFF" d="m0,0-0.119-30.247c0-2.638-0.742-5.173-2.223-7.593-1.479-2.418-3.398-4.251-5.761-5.491-3.279-1.478-6.68-2.22-10.202-2.22-3.521,0-6.68,0.782-9.483,2.342-2.8,1.56-4.661,3.391-5.58,5.488-0.921,2.102-1.511,3.694-1.77,4.775-0.261,1.079-0.39,2.058-0.39,2.938v30.008h5.34v-30.008c0.28-2.08,0.878-3.951,1.803-5.611,0.917-1.662,2.239-2.91,3.96-3.752,2.239-0.958,4.501-1.437,6.781-1.437,1.8,0,3.461,0.288,4.98,0.87,1.522,0.579,2.811,1.47,3.873,2.67,1.058,1.201,1.878,2.39,2.459,3.569,0.578,1.181,0.872,2.413,0.872,3.691v0.485,29.523h5.46z"/></g><g id="g4915" transform="translate(286.4204,314.8779)"><path id="path4917" fill-rule="nonzero" fill="#FFF" d="m0,0-1.083,0-32.407,35.649,0-34.689-4.982,0,0,45.492,1.252-0.009,32.118-35.686,0,34.613h5.102v-45.37z"/></g><g id="g4919" transform="translate(359.1328,354.9688)"><path id="path4921" fill-rule="nonzero" fill="#FFF" d="m0,0c-0.521,0.201-1.07,0.367-1.649,0.512-0.581,0.136-1.11,0.209-1.592,0.209h-8.463v-14.885h9.904c1.918,0,3.407,0.668,4.472,2.009,1.058,1.342,1.588,2.973,1.588,4.892,0,1.601-0.357,3.062-1.078,4.383-0.722,1.319-1.784,2.279-3.182,2.88m12.198-39.057-7.216-0.013-16.686,22.687,0-22.687-5.582,0,0,44.41,16.447-0.178c3.159,0,5.752-1.201,7.772-3.602,2.017-2.401,3.03-5.182,3.03-8.343,0-1.68-0.293-3.24-0.867-4.68-0.583-1.441-1.533-2.764-2.849-3.961-1.48-1.203-3.101-2.06-4.856-2.583l-5.879,0.015,16.686-21.065z"/></g><g id="g4923" transform="translate(419.6221,315.8984)"><path id="path4925" fill-rule="nonzero" fill="#FFF" d="m0,0-24.128,0,0,44.41,24.128,0,0-4.8-18.782,0,0-13.143,18.782,0,0-4.563-18.782,0,0-17.102h18.782v-4.802z"/></g><g id="g4927" transform="translate(466.3682,354.8506)"><path id="path4929" fill-rule="nonzero" fill="#FFF" d="m0,0c-0.922,0.319-1.902,0.558-2.941,0.72h-7.202v-15.186h8.942c1.722,0.518,3.08,1.504,4.082,2.959,0.998,1.454,1.498,3.059,1.498,4.813,0,1.475-0.36,2.81-1.077,4.004-0.72,1.197-1.822,2.092-3.302,2.69m9.965-5.558,0-1.555c0-3.115-1.002-5.778-2.993-7.993-1.996-2.214-4.61-3.481-7.843-3.803h-9.272v-20.043h-5.462v44.41l14.404-0.178c3.159-0.361,5.811-1.508,7.954-3.445,2.137-1.933,3.212-4.399,3.212-7.393"/></g><g id="g4931" transform="translate(535.5596,338.5234)"><path id="path4933" fill-rule="nonzero" fill="#FFF" d="m0,0c0,5.094-1.84,9.398-5.524,12.926-3.68,3.527-8.098,5.291-13.261,5.291-5.081,0-9.384-1.846-12.904-5.533-3.522-3.684-5.282-8.114-5.282-13.285,0-5.09,1.83-9.387,5.491-12.893,3.66-3.506,8.093-5.26,13.293-5.26,5.081,0,9.386,1.843,12.903,5.531,3.522,3.688,5.284,8.096,5.284,13.223m5.518-0.121c0-6.567-2.311-12.166-6.929-16.795-4.62-4.625-10.212-6.939-16.776-6.939-6.642,0-12.353,2.234-17.133,6.701-4.782,4.463-7.174,9.944-7.174,16.436,0,6.57,2.314,12.167,6.932,16.794,4.623,4.628,10.213,6.942,16.777,6.942,6.642,0,12.352-2.235,17.132-6.701,4.785-4.467,7.171-9.946,7.171-16.438"/></g><g id="g4935" transform="translate(576.1211,354.9688)"><path id="path4937" fill-rule="nonzero" fill="#FFF" d="m0,0c-0.522,0.201-1.068,0.367-1.65,0.512-0.577,0.136-1.108,0.209-1.59,0.209h-8.458v-14.885h9.9c1.918,0,3.409,0.668,4.47,2.009,1.062,1.342,1.593,2.973,1.593,4.892,0,1.601-0.361,3.062-1.08,4.383-0.723,1.319-1.784,2.279-3.185,2.88m12.2-39.057-7.217-0.013-16.681,22.687,0-22.687-5.587,0,0,44.41,16.447-0.178c3.161,0,5.751-1.201,7.775-3.602,2.015-2.401,3.026-5.182,3.026-8.343,0-1.68-0.29-3.24-0.868-4.68-0.581-1.441-1.531-2.764-2.847-3.961-1.481-1.203-3.098-2.06-4.858-2.583l-5.873,0.015,16.683-21.065z"/></g><g id="g4939" transform="translate(640.4531,355.627)"><path id="path4941" fill-rule="nonzero" fill="#FFF" d="m0,0-12.781,0,0-39.729-5.527,0,0,39.729-12.779,0,0,4.682h31.087v-4.682z"/></g></g></g><path id="path5013" d="m97.205,76.854a37.188,38.661,0,1,1,-74.377,0,37.188,38.661,0,1,1,74.377,0z" clip-path="url(#clipPath5032)" transform="translate(0,2)" fill="url(#linearGradient5021)"/></g></svg>
