<?xml version="1.0" encoding="UTF-8" standalone="no"?>
<!-- Created with Inkscape (http://www.inkscape.org/) -->

<svg
   xmlns:dc="http://purl.org/dc/elements/1.1/"
   xmlns:cc="http://creativecommons.org/ns#"
   xmlns:rdf="http://www.w3.org/1999/02/22-rdf-syntax-ns#"
   xmlns:svg="http://www.w3.org/2000/svg"
   xmlns="http://www.w3.org/2000/svg"
   xmlns:xlink="http://www.w3.org/1999/xlink"
   xmlns:sodipodi="http://sodipodi.sourceforge.net/DTD/sodipodi-0.dtd"
   xmlns:inkscape="http://www.inkscape.org/namespaces/inkscape"
   id="svg5903"
   version="1.1"
   inkscape:version="0.48.4 r9939"
   width="230"
   height="300"
   xml:space="preserve"
   sodipodi:docname="logo_bloc.svg"><metadata
     id="metadata5909"><rdf:RDF><cc:Work
         rdf:about=""><dc:format>image/svg+xml</dc:format><dc:type
           rdf:resource="http://purl.org/dc/dcmitype/StillImage" /><dc:title /></cc:Work></rdf:RDF></metadata><defs
     id="defs5907"><linearGradient
       id="linearGradient3967"><stop
         id="stop3969"
         offset="0"
         style="stop-color:#f8b133;stop-opacity:1;" /><stop
         id="stop3971"
         offset="1"
         style="stop-color:#f8b133;stop-opacity:0;" /></linearGradient><linearGradient
       id="linearGradient3951"><stop
         style="stop-color:#f8b133;stop-opacity:1;"
         offset="0"
         id="stop3953" /><stop
         style="stop-color:#f8b133;stop-opacity:0;"
         offset="1"
         id="stop3955" /></linearGradient><linearGradient
       id="linearGradient3986"
       spreadMethod="pad"
       gradientTransform="matrix(-21.862045,-42.43808,-42.43808,21.862045,352.62695,394.64941)"
       gradientUnits="userSpaceOnUse"
       y2="0"
       x2="1"
       y1="0"
       x1="0"><stop
         id="stop3988"
         offset="0"
         style="stop-opacity:0;stop-color:#f8b33f" /><stop
         id="stop3990"
         offset="1"
         style="stop-opacity:1;stop-color:#f8b133" /></linearGradient><clipPath
       clipPathUnits="userSpaceOnUse"
       id="clipPath5917"><path
         d="m 0,725.668 725.668,0 L 725.668,0 0,0 0,725.668 z"
         id="path5919"
         inkscape:connector-curvature="0" /></clipPath><clipPath
       clipPathUnits="userSpaceOnUse"
       id="clipPath5961"><path
         d="m 305.652,412.894 59.178,0 0,-59.179 -59.178,0 0,59.179 z"
         id="path5963"
         inkscape:connector-curvature="0" /></clipPath><clipPath
       clipPathUnits="userSpaceOnUse"
       id="clipPath5965"><path
         d="m 305.652,353.715 c 0,32.684 26.498,59.179 59.178,59.179 l 0,-59.179 -59.178,0 z"
         id="path5967"
         inkscape:connector-curvature="0" /></clipPath><clipPath
       clipPathUnits="userSpaceOnUse"
       id="clipPath5969"><path
         d="m -32768,32767 65535,0 0,-65534 -65535,0 0,65534 z"
         id="path5971"
         inkscape:connector-curvature="0" /></clipPath><linearGradient
       x1="0"
       y1="0"
       x2="1"
       y2="0"
       gradientUnits="userSpaceOnUse"
       gradientTransform="matrix(-21.862045,-42.43808,-42.43808,21.862045,352.62695,394.64941)"
       spreadMethod="pad"
       id="linearGradient5973"><stop
         style="stop-opacity:1;stop-color:#ffffff"
         offset="0"
         id="stop5975" /><stop
         style="stop-opacity:0;stop-color:#ffffff"
         offset="1"
         id="stop5977" /></linearGradient><mask
       maskUnits="userSpaceOnUse"
       x="0"
       y="0"
       width="1"
       height="1"
       id="mask5979"><g
         id="g5981"><g
           clip-path="url(#clipPath5969)"
           id="g5983"><g
             id="g5985"><g
               id="g5987"><path
                 d="m -32768,32767 65535,0 0,-65534 -65535,0 0,65534 z"
                 style="fill:url(#linearGradient5973);stroke:none"
                 id="path5989"
                 inkscape:connector-curvature="0" /></g></g></g></g></mask><linearGradient
       x1="0"
       y1="0"
       x2="1"
       y2="0"
       gradientUnits="userSpaceOnUse"
       gradientTransform="matrix(-21.862045,-42.43808,-42.43808,21.862045,352.62695,394.64941)"
       spreadMethod="pad"
       id="linearGradient5991"><stop
         style="stop-opacity:1;stop-color:#f8b33f"
         offset="0"
         id="stop5993" /><stop
         style="stop-opacity:1;stop-color:#f39a37"
         offset="1"
         id="stop5995" /></linearGradient><clipPath
       clipPathUnits="userSpaceOnUse"
       id="clipPath6019"><path
         d="m 278.307,353.263 10.734,0 c 0,1.433 0.042,2.878 0.122,4.294 l 0,0 -10.716,0.611 c -0.093,-1.619 -0.14,-3.267 -0.14,-4.905"
         id="path6021"
         inkscape:connector-curvature="0" /></clipPath><linearGradient
       x1="0"
       y1="0"
       x2="1"
       y2="0"
       gradientUnits="userSpaceOnUse"
       gradientTransform="matrix(101.82289,5.920105,5.920105,-101.82288,311.271,357.31543)"
       spreadMethod="pad"
       id="linearGradient6027"><stop
         style="stop-opacity:1;stop-color:#f8b33f"
         offset="0"
         id="stop6029" /><stop
         style="stop-opacity:1;stop-color:#ed7c30"
         offset="1"
         id="stop6031" /></linearGradient><clipPath
       clipPathUnits="userSpaceOnUse"
       id="clipPath6039"><path
         d="m 376.367,427.087 c 2.753,-0.459 5.5,-1.08 8.168,-1.846 l 0,0 2.961,10.319 c -3.058,0.878 -6.208,1.587 -9.358,2.114 l 0,0 -1.771,-10.587 z m 16.089,-4.605 c 2.571,-1.059 5.113,-2.284 7.555,-3.631 l 0,0 5.188,9.398 c -2.794,1.542 -5.704,2.939 -8.646,4.156 l 0,0 -4.097,-9.923 z m 14.661,-8.089 c 2.269,-1.605 4.475,-3.363 6.562,-5.222 l 0,0 7.14,8.013 c -2.383,2.126 -4.906,4.133 -7.499,5.969 l 0,0 -6.203,-8.76 z m 12.505,-11.142 c 1.861,-2.076 3.629,-4.277 5.245,-6.542 l 0,0 8.735,6.236 c -1.846,2.59 -3.863,5.105 -5.992,7.477 l 0,0 -7.988,-7.171 z m 9.725,-13.624 c 1.356,-2.436 2.586,-4.972 3.659,-7.536 l 0,0 9.904,4.137 c -1.224,2.933 -2.633,5.834 -4.183,8.62 l 0,0 -9.38,-5.221 z m 6.445,-15.439 c 0.776,-2.673 1.41,-5.419 1.88,-8.164 l 0,0 10.578,1.815 c -0.537,3.142 -1.26,6.284 -2.148,9.345 l 0,0 -10.31,-2.996 z"
         id="path6041"
         inkscape:connector-curvature="0" /></clipPath><linearGradient
       x1="0"
       y1="0"
       x2="1"
       y2="0"
       gradientUnits="userSpaceOnUse"
       gradientTransform="matrix(41.294632,2.4009247,2.4009247,-41.294632,390.52539,400.83789)"
       spreadMethod="pad"
       id="linearGradient6047"><stop
         style="stop-opacity:1;stop-color:#f8b33f"
         offset="0"
         id="stop6049" /><stop
         style="stop-opacity:1;stop-color:#ed7c30"
         offset="1"
         id="stop6051" /></linearGradient><clipPath
       clipPathUnits="userSpaceOnUse"
       id="clipPath6059"><path
         d="m 438.635,357.557 c 0.081,-1.416 0.122,-2.861 0.122,-4.294 l 0,0 10.735,0 c 0,1.638 -0.047,3.286 -0.139,4.905 l 0,0 -10.718,-0.611 z"
         id="path6061"
         inkscape:connector-curvature="0" /></clipPath><linearGradient
       x1="0"
       y1="0"
       x2="1"
       y2="0"
       gradientUnits="userSpaceOnUse"
       gradientTransform="matrix(101.80814,5.9192505,5.9192505,-101.80812,311.83691,347.72266)"
       spreadMethod="pad"
       id="linearGradient6067"><stop
         style="stop-opacity:1;stop-color:#f8b33f"
         offset="0"
         id="stop6069" /><stop
         style="stop-opacity:1;stop-color:#ed7c30"
         offset="1"
         id="stop6071" /></linearGradient><clipPath
       clipPathUnits="userSpaceOnUse"
       id="clipPath6079"><path
         d="m 361.161,457.234 c -1.15,0 -2.083,-0.641 -2.083,-1.428 l 0,0 0,-8.703 c 0,-0.789 0.933,-1.432 2.083,-1.432 l 0,0 11.056,0 c 1.152,0 2.084,0.643 2.084,1.432 l 0,0 0,8.703 c 0,0.787 -0.932,1.428 -2.084,1.428 l 0,0 -11.056,0 z"
         id="path6081"
         inkscape:connector-curvature="0" /></clipPath><linearGradient
       x1="0"
       y1="0"
       x2="1"
       y2="0"
       gradientUnits="userSpaceOnUse"
       gradientTransform="matrix(101.81377,5.9195862,5.9195862,-101.81377,306.00146,447.92334)"
       spreadMethod="pad"
       id="linearGradient6087"><stop
         style="stop-opacity:1;stop-color:#f8b33f"
         offset="0"
         id="stop6089" /><stop
         style="stop-opacity:1;stop-color:#ed7c30"
         offset="1"
         id="stop6091" /></linearGradient><clipPath
       clipPathUnits="userSpaceOnUse"
       id="clipPath6099"><path
         d="m 352.158,472.081 0,-11.139 c 0,-0.789 0.641,-1.427 1.429,-1.427 l 0,0 c 0.786,0 1.422,0.638 1.422,1.427 l 0,0 0,11.139 c 0,0.787 -0.636,1.426 -1.422,1.426 l 0,0 c -0.788,0 -1.429,-0.639 -1.429,-1.426"
         id="path6101"
         inkscape:connector-curvature="0" /></clipPath><linearGradient
       x1="0"
       y1="0"
       x2="1"
       y2="0"
       gradientUnits="userSpaceOnUse"
       gradientTransform="matrix(101.80856,5.919281,5.919281,-101.80855,305.08691,463.68994)"
       spreadMethod="pad"
       id="linearGradient6107"><stop
         style="stop-opacity:1;stop-color:#f8b33f"
         offset="0"
         id="stop6109" /><stop
         style="stop-opacity:1;stop-color:#ed7c30"
         offset="1"
         id="stop6111" /></linearGradient><clipPath
       clipPathUnits="userSpaceOnUse"
       id="clipPath6119"><path
         d="m 356.53,472.081 0,-11.139 c 0,-0.789 0.635,-1.427 1.422,-1.427 l 0,0 c 0.788,0 1.427,0.638 1.427,1.427 l 0,0 0,11.139 c 0,0.787 -0.639,1.426 -1.427,1.426 l 0,0 c -0.787,0 -1.422,-0.639 -1.422,-1.426"
         id="path6121"
         inkscape:connector-curvature="0" /></clipPath><linearGradient
       x1="0"
       y1="0"
       x2="1"
       y2="0"
       gradientUnits="userSpaceOnUse"
       gradientTransform="matrix(101.79996,5.9187775,5.9187775,-101.79994,305.10693,463.43799)"
       spreadMethod="pad"
       id="linearGradient6127"><stop
         style="stop-opacity:1;stop-color:#f8b33f"
         offset="0"
         id="stop6129" /><stop
         style="stop-opacity:1;stop-color:#ed7c30"
         offset="1"
         id="stop6131" /></linearGradient><clipPath
       clipPathUnits="userSpaceOnUse"
       id="clipPath6139"><path
         d="m 360.896,472.081 0,-11.139 c 0,-0.789 0.638,-1.427 1.426,-1.427 l 0,0 c 0.788,0 1.424,0.638 1.424,1.427 l 0,0 0,11.139 c 0,0.787 -0.636,1.426 -1.424,1.426 l 0,0 c -0.788,0 -1.426,-0.639 -1.426,-1.426"
         id="path6141"
         inkscape:connector-curvature="0" /></clipPath><linearGradient
       x1="0"
       y1="0"
       x2="1"
       y2="0"
       gradientUnits="userSpaceOnUse"
       gradientTransform="matrix(101.79434,5.918457,5.918457,-101.79434,305.125,463.18555)"
       spreadMethod="pad"
       id="linearGradient6147"><stop
         style="stop-opacity:1;stop-color:#f8b33f"
         offset="0"
         id="stop6149" /><stop
         style="stop-opacity:1;stop-color:#ed7c30"
         offset="1"
         id="stop6151" /></linearGradient><clipPath
       clipPathUnits="userSpaceOnUse"
       id="clipPath6159"><path
         d="m 365.266,472.081 0,-11.139 c 0,-0.789 0.637,-1.427 1.425,-1.427 l 0,0 c 0.785,0 1.422,0.638 1.422,1.427 l 0,0 0,11.139 c 0,0.787 -0.637,1.426 -1.422,1.426 l 0,0 c -0.788,0 -1.425,-0.639 -1.425,-1.426"
         id="path6161"
         inkscape:connector-curvature="0" /></clipPath><linearGradient
       x1="0"
       y1="0"
       x2="1"
       y2="0"
       gradientUnits="userSpaceOnUse"
       gradientTransform="matrix(101.74869,5.915802,5.915802,-101.74867,305.16846,462.93359)"
       spreadMethod="pad"
       id="linearGradient6167"><stop
         style="stop-opacity:1;stop-color:#f8b33f"
         offset="0"
         id="stop6169" /><stop
         style="stop-opacity:1;stop-color:#ed7c30"
         offset="1"
         id="stop6171" /></linearGradient><clipPath
       clipPathUnits="userSpaceOnUse"
       id="clipPath6179"><path
         d="m 369.633,472.081 0,-11.139 c 0,-0.789 0.639,-1.427 1.423,-1.427 l 0,0 c 0.79,0 1.429,0.638 1.429,1.427 l 0,0 0,11.139 c 0,0.787 -0.639,1.426 -1.429,1.426 l 0,0 c -0.784,0 -1.423,-0.639 -1.423,-1.426"
         id="path6181"
         inkscape:connector-curvature="0" /></clipPath><linearGradient
       x1="0"
       y1="0"
       x2="1"
       y2="0"
       gradientUnits="userSpaceOnUse"
       gradientTransform="matrix(101.85681,5.9220886,5.9220886,-101.85681,305.11621,462.67627)"
       spreadMethod="pad"
       id="linearGradient6187"><stop
         style="stop-opacity:1;stop-color:#f8b33f"
         offset="0"
         id="stop6189" /><stop
         style="stop-opacity:1;stop-color:#ed7c30"
         offset="1"
         id="stop6191" /></linearGradient><clipPath
       clipPathUnits="userSpaceOnUse"
       id="clipPath6199"><path
         d="m 374.003,472.081 0,-11.139 c 0,-0.789 0.635,-1.427 1.424,-1.427 l 0,0 c 0.787,0 1.425,0.638 1.425,1.427 l 0,0 0,11.139 c 0,0.787 -0.638,1.426 -1.425,1.426 l 0,0 c -0.789,0 -1.424,-0.639 -1.424,-1.426"
         id="path6201"
         inkscape:connector-curvature="0" /></clipPath><linearGradient
       x1="0"
       y1="0"
       x2="1"
       y2="0"
       gradientUnits="userSpaceOnUse"
       gradientTransform="matrix(101.77713,5.91745,5.91745,-101.77711,305.18457,462.42578)"
       spreadMethod="pad"
       id="linearGradient6207"><stop
         style="stop-opacity:1;stop-color:#f8b33f"
         offset="0"
         id="stop6209" /><stop
         style="stop-opacity:1;stop-color:#ed7c30"
         offset="1"
         id="stop6211" /></linearGradient><clipPath
       clipPathUnits="userSpaceOnUse"
       id="clipPath6219"><path
         d="m 378.371,472.081 0,-11.139 c 0,-0.789 0.637,-1.427 1.422,-1.427 l 0,0 c 0.789,0 1.426,0.638 1.426,1.427 l 0,0 0,11.139 c 0,0.787 -0.637,1.426 -1.426,1.426 l 0,0 c -0.785,0 -1.422,-0.639 -1.422,-1.426"
         id="path6221"
         inkscape:connector-curvature="0" /></clipPath><linearGradient
       x1="0"
       y1="0"
       x2="1"
       y2="0"
       gradientUnits="userSpaceOnUse"
       gradientTransform="matrix(101.77151,5.9171295,5.9171295,-101.7715,305.20508,462.17383)"
       spreadMethod="pad"
       id="linearGradient6227"><stop
         style="stop-opacity:1;stop-color:#f8b33f"
         offset="0"
         id="stop6229" /><stop
         style="stop-opacity:1;stop-color:#ed7c30"
         offset="1"
         id="stop6231" /></linearGradient><clipPath
       clipPathUnits="userSpaceOnUse"
       id="clipPath6239"><path
         d="m 356.72,356.262 c 0,-5.506 4.466,-9.966 9.971,-9.966 l 0,0 c 5.502,0 9.967,4.46 9.967,9.966 l 0,0 c 0,5.503 -4.465,9.967 -9.967,9.967 l 0,0 c -5.505,0 -9.971,-4.464 -9.971,-9.967"
         id="path6241"
         inkscape:connector-curvature="0" /></clipPath><linearGradient
       x1="0"
       y1="0"
       x2="1"
       y2="0"
       gradientUnits="userSpaceOnUse"
       gradientTransform="matrix(101.81453,5.919632,5.919632,-101.81453,311.69141,353.06348)"
       spreadMethod="pad"
       id="linearGradient6247"><stop
         style="stop-opacity:1;stop-color:#f8b33f"
         offset="0"
         id="stop6249" /><stop
         style="stop-opacity:1;stop-color:#ed7c30"
         offset="1"
         id="stop6251" /></linearGradient><clipPath
       clipPathUnits="userSpaceOnUse"
       id="clipPath6259"><path
         d="m 362.91,351.689 6.849,-0.202 -4.929,61.407 -1.92,-61.205 z"
         id="path6261"
         inkscape:connector-curvature="0" /></clipPath><linearGradient
       x1="0"
       y1="0"
       x2="1"
       y2="0"
       gradientUnits="userSpaceOnUse"
       gradientTransform="matrix(101.80614,5.9191437,5.9191437,-101.80612,310.19482,378.87061)"
       spreadMethod="pad"
       id="linearGradient6267"><stop
         style="stop-opacity:1;stop-color:#f8b33f"
         offset="0"
         id="stop6269" /><stop
         style="stop-opacity:1;stop-color:#ed7c30"
         offset="1"
         id="stop6271" /></linearGradient><clipPath
       clipPathUnits="userSpaceOnUse"
       id="clipPath6279"><path
         d="m 277.539,353.263 12.269,0 c 0,40.854 33.236,74.091 74.091,74.091 l 0,0 c 3.387,0 6.134,2.747 6.134,6.135 l 0,0 c 0,3.387 -2.747,6.133 -6.134,6.133 l 0,0 c -47.62,0 -86.36,-38.741 -86.36,-86.359"
         id="path6281"
         inkscape:connector-curvature="0" /></clipPath><linearGradient
       x1="0"
       y1="0"
       x2="1"
       y2="0"
       gradientUnits="userSpaceOnUse"
       gradientTransform="matrix(101.80544,5.9190979,5.9190979,-101.80544,309.05566,395.48096)"
       spreadMethod="pad"
       id="linearGradient6287"><stop
         style="stop-opacity:1;stop-color:#f8b33f"
         offset="0"
         id="stop6289" /><stop
         style="stop-opacity:1;stop-color:#ed7c30"
         offset="1"
         id="stop6291" /></linearGradient><linearGradient
       inkscape:collect="always"
       xlink:href="#linearGradient3986"
       id="linearGradient3984"
       x1="121.31301"
       y1="156.7065"
       x2="120.35212"
       y2="101.45503"
       gradientUnits="userSpaceOnUse" /><linearGradient
       inkscape:collect="always"
       xlink:href="#linearGradient3967"
       id="linearGradient3975"
       x1="66.685951"
       y1="144.09439"
       x2="96.174377"
       y2="143.28404"
       gradientUnits="userSpaceOnUse" /><clipPath
       clipPathUnits="userSpaceOnUse"
       id="clipPath3982"><rect
         style="fill:#800000;fill-opacity:1;stroke:none"
         id="rect3984"
         width="31.963808"
         height="37.097641"
         x="-175.69052"
         y="62.737637"
         transform="matrix(0,-1,1,0,0,0)" /></clipPath></defs><sodipodi:namedview
     pagecolor="#ffffff"
     bordercolor="#666666"
     borderopacity="1"
     objecttolerance="10"
     gridtolerance="10"
     guidetolerance="10"
     inkscape:pageopacity="0"
     inkscape:pageshadow="2"
     inkscape:window-width="1916"
     inkscape:window-height="1041"
     id="namedview5905"
     showgrid="false"
     inkscape:zoom="4.1627851"
     inkscape:cx="172.38068"
     inkscape:cy="131.17072"
     inkscape:window-x="0"
     inkscape:window-y="18"
     inkscape:window-maximized="0"
     inkscape:current-layer="layer5" /><g
     inkscape:groupmode="layer"
     id="layer3"
     inkscape:label="Layer"
     transform="translate(0,-607.0851)"
     style="opacity:0.11811027;display:none"><rect
       style="fill:#2c3e50;fill-opacity:1;stroke:none"
       id="rect6296"
       width="434.32462"
       height="580.38068"
       x="-86.051422"
       y="531.1673"
       ry="18.745729" /></g><g
     inkscape:groupmode="layer"
     id="layer5"
     inkscape:label="Layer#1"
     style="display:inline"><path
       sodipodi:type="arc"
       style="fill:url(#linearGradient3975);fill-opacity:1;stroke:none"
       id="path3181"
       sodipodi:cx="95.128616"
       sodipodi:cy="143.37408"
       sodipodi:rx="28.58663"
       sodipodi:ry="30.027973"
       d="m 123.71525,143.37408 a 28.58663,30.027973 0 1 1 -1.7e-4,-0.10301"
       sodipodi:start="0"
       sodipodi:end="6.2797548"
       sodipodi:open="true"
       transform="matrix(0,2.7650154,-2.668,0,499.73119,-104.56581)"
       clip-path="url(#clipPath3982)" /></g><g
     inkscape:groupmode="layer"
     id="layer1"
     inkscape:label="Layer#2" /><g
     id="g5911"
     inkscape:groupmode="layer"
     inkscape:label="logo_bloc"
     transform="matrix(1.25,0,0,-1.25,0,299.99989)"><g
       id="g5913"
       transform="translate(-271.78219,-243.51684)"><g
         id="g5915"
         clip-path="url(#clipPath5917)"><g
           id="g5921"
           transform="translate(289.4302,273.1523)"><path
             d="m 0,0 c -0.269,0.104 -0.552,0.19 -0.853,0.264 -0.3,0.071 -0.574,0.108 -0.821,0.108 l -4.372,0 0,-7.688 5.116,0 c 0.992,0 1.762,0.344 2.309,1.037 0.547,0.693 0.822,1.537 0.822,2.527 0,0.826 -0.185,1.582 -0.558,2.263 C 1.271,-0.806 0.722,-0.311 0,0 m 6.301,-20.177 -3.728,-0.005 -8.619,11.718 0,-11.718 -2.883,0 0,22.941 8.494,-0.091 c 1.633,0 2.972,-0.62 4.016,-1.861 1.043,-1.242 1.565,-2.678 1.565,-4.31 0,-0.867 -0.15,-1.674 -0.449,-2.419 C 4.398,-6.666 3.906,-7.35 3.227,-7.967 2.462,-8.587 1.625,-9.032 0.717,-9.301 l -3.035,0.005 8.619,-10.881 z"
             style="fill:#ffffff;fill-opacity:1;fill-rule:nonzero;stroke:none"
             id="path5923"
             inkscape:connector-curvature="0" /></g><g
           id="g5925"
           transform="translate(323.6577,252.9707)"><path
             d="m 0,0 -12.463,0 0,22.94 12.463,0 0,-2.479 -9.703,0 0,-6.789 9.703,0 0,-2.357 -9.703,0 0,-8.836 L 0,2.479 0,0 z"
             style="fill:#ffffff;fill-opacity:1;fill-rule:nonzero;stroke:none"
             id="path5927"
             inkscape:connector-curvature="0" /></g><g
           id="g5929"
           transform="translate(350.7847,273.0928)"><path
             d="m 0,0 c -0.475,0.165 -0.982,0.286 -1.519,0.369 l -3.721,0 0,-7.843 4.619,0 c 0.891,0.268 1.594,0.778 2.11,1.528 0.515,0.751 0.774,1.58 0.774,2.485 0,0.763 -0.185,1.454 -0.556,2.071 C 1.334,-0.771 0.766,-0.31 0,0 m 5.148,-2.871 0,-0.804 c 0,-1.61 -0.517,-2.984 -1.547,-4.13 -1.028,-1.142 -2.38,-1.799 -4.05,-1.964 l -4.791,0 0,-10.353 -2.821,0 0,22.94 7.44,-0.09 C 1.012,2.539 2.383,1.946 3.489,0.946 4.592,-0.053 5.148,-1.327 5.148,-2.871"
             style="fill:#ffffff;fill-opacity:1;fill-rule:nonzero;stroke:none"
             id="path5931"
             inkscape:connector-curvature="0" /></g><g
           id="g5933"
           transform="translate(389.5088,264.6582)"><path
             d="m 0,0 c 0,2.63 -0.95,4.854 -2.854,6.676 -1.901,1.823 -4.184,2.732 -6.85,2.732 -2.627,0 -4.848,-0.952 -6.668,-2.857 -1.816,-1.902 -2.725,-4.191 -2.725,-6.863 0,-2.627 0.944,-4.85 2.834,-6.661 1.892,-1.811 4.181,-2.715 6.868,-2.715 2.624,0 4.849,0.952 6.666,2.856 C -0.911,-4.929 0,-2.65 0,0 m 2.851,-0.063 c 0,-3.393 -1.194,-6.285 -3.58,-8.676 -2.387,-2.391 -5.276,-3.586 -8.666,-3.586 -3.43,0 -6.381,1.155 -8.852,3.463 -2.469,2.306 -3.703,5.136 -3.703,8.49 0,3.393 1.193,6.284 3.579,8.676 2.389,2.391 5.277,3.586 8.667,3.586 3.432,0 6.381,-1.156 8.851,-3.46 2.469,-2.309 3.704,-5.14 3.704,-8.493"
             style="fill:#ffffff;fill-opacity:1;fill-rule:nonzero;stroke:none"
             id="path5935"
             inkscape:connector-curvature="0" /></g><g
           id="g5937"
           transform="translate(413.4434,273.1523)"><path
             d="m 0,0 c -0.27,0.104 -0.555,0.19 -0.854,0.264 -0.297,0.071 -0.574,0.108 -0.82,0.108 l -4.373,0 0,-7.688 5.116,0 c 0.992,0 1.762,0.344 2.31,1.037 0.548,0.693 0.821,1.537 0.821,2.527 0,0.826 -0.184,1.582 -0.557,2.263 C 1.271,-0.806 0.721,-0.311 0,0 m 6.301,-20.177 -3.73,-0.005 -8.618,11.718 0,-11.718 -2.882,0 0,22.941 8.493,-0.091 c 1.633,0 2.972,-0.62 4.018,-1.861 1.041,-1.242 1.564,-2.678 1.564,-4.31 0,-0.867 -0.151,-1.674 -0.45,-2.419 C 4.397,-6.666 3.905,-7.35 3.226,-7.967 2.462,-8.587 1.625,-9.032 0.717,-9.301 l -3.035,0.005 8.619,-10.881 z"
             style="fill:#ffffff;fill-opacity:1;fill-rule:nonzero;stroke:none"
             id="path5939"
             inkscape:connector-curvature="0" /></g><g
           id="g5941"
           transform="translate(449.6553,273.4922)"><path
             d="m 0,0 -6.605,0 0,-20.521 -2.853,0 0,20.521 -6.601,0 0,2.419 L 0,2.419 0,0 z"
             style="fill:#ffffff;fill-opacity:1;fill-rule:nonzero;stroke:none"
             id="path5943"
             inkscape:connector-curvature="0" /></g><g
           id="g5945"
           transform="translate(301.1953,331.0361)"><path
             d="m 0,0 c -0.63,0.241 -1.292,0.444 -1.994,0.615 -0.699,0.168 -1.34,0.253 -1.921,0.253 l -10.219,0 0,-17.976 11.959,0 c 2.318,0 4.117,0.809 5.4,2.426 1.281,1.62 1.921,3.592 1.921,5.909 0,1.93 -0.434,3.699 -1.304,5.292 C 2.971,-1.887 1.688,-0.729 0,0 m 14.73,-47.171 -8.714,-0.015 -20.15,27.398 0,-27.398 -6.741,0 0,53.633 19.859,-0.214 c 3.817,0 6.946,-1.451 9.388,-4.35 2.439,-2.899 3.659,-6.259 3.659,-10.074 0,-2.03 -0.352,-3.913 -1.05,-5.655 -0.702,-1.74 -1.848,-3.335 -3.438,-4.781 -1.788,-1.452 -3.743,-2.492 -5.866,-3.12 l -7.095,0.016 20.148,-25.44 z"
             style="fill:#ffffff;fill-opacity:1;fill-rule:nonzero;stroke:none"
             id="path5947"
             inkscape:connector-curvature="0" /></g><g
           id="g5949"
           transform="translate(375.0508,336.9883)"><path
             d="m 0,0 -0.143,-36.528 c 0,-3.188 -0.896,-6.246 -2.684,-9.168 -1.786,-2.923 -4.106,-5.137 -6.957,-6.633 -3.96,-1.786 -8.07,-2.681 -12.321,-2.681 -4.253,0 -8.07,0.942 -11.454,2.826 -3.381,1.884 -5.629,4.097 -6.738,6.631 -1.112,2.537 -1.825,4.461 -2.138,5.762 -0.315,1.307 -0.472,2.489 -0.472,3.552 l 0,36.239 6.451,0 0,-36.239 c 0.338,-2.512 1.06,-4.773 2.176,-6.777 1.108,-2.006 2.705,-3.514 4.783,-4.531 2.704,-1.158 5.436,-1.735 8.19,-1.735 2.174,0 4.18,0.345 6.013,1.05 1.839,0.698 3.396,1.775 4.677,3.224 1.278,1.449 2.268,2.886 2.971,4.314 0.699,1.423 1.053,2.911 1.053,4.455 l 0,0.583 L -6.593,0 0,0 z"
             style="fill:#ffffff;fill-opacity:1;fill-rule:nonzero;stroke:none"
             id="path5951"
             inkscape:connector-curvature="0" /></g><g
           id="g5953"
           transform="translate(449.6348,281.4336)"><path
             d="m 0,0 -1.307,0 -39.137,43.052 0,-41.894 -6.019,0 0,54.942 1.513,-0.012 38.79,-43.097 0,41.803 6.16,0 L 0,0 z"
             style="fill:#ffffff;fill-opacity:1;fill-rule:nonzero;stroke:none"
             id="path5955"
             inkscape:connector-curvature="0" /></g><g
           id="g5957"><g
             id="g5959" /></g></g></g><g
       id="g6015"
       transform="translate(-271.78219,-243.51684)"><g
         id="g6017"
         clip-path="url(#clipPath6019)"><g
           id="g6023"><g
             id="g6025"><path
               d="m 278.307,353.263 10.734,0 c 0,1.433 0.042,2.878 0.122,4.294 l 0,0 -10.716,0.611 c -0.093,-1.619 -0.14,-3.267 -0.14,-4.905"
               style="fill:url(#linearGradient6027);stroke:none"
               id="path6033"
               inkscape:connector-curvature="0" /></g></g></g></g><g
       id="g6035"
       transform="translate(-271.78219,-243.51684)"><g
         id="g6037"
         clip-path="url(#clipPath6039)"><g
           id="g6043"><g
             id="g6045"><path
               d="m 376.367,427.087 c 2.753,-0.459 5.5,-1.08 8.168,-1.846 l 0,0 2.961,10.319 c -3.058,0.878 -6.208,1.587 -9.358,2.114 l 0,0 -1.771,-10.587 z m 16.089,-4.605 c 2.571,-1.059 5.113,-2.284 7.555,-3.631 l 0,0 5.188,9.398 c -2.794,1.542 -5.704,2.939 -8.646,4.156 l 0,0 -4.097,-9.923 z m 14.661,-8.089 c 2.269,-1.605 4.475,-3.363 6.562,-5.222 l 0,0 7.14,8.013 c -2.383,2.126 -4.906,4.133 -7.499,5.969 l 0,0 -6.203,-8.76 z m 12.505,-11.142 c 1.861,-2.076 3.629,-4.277 5.245,-6.542 l 0,0 8.735,6.236 c -1.846,2.59 -3.863,5.105 -5.992,7.477 l 0,0 -7.988,-7.171 z m 9.725,-13.624 c 1.356,-2.436 2.586,-4.972 3.659,-7.536 l 0,0 9.904,4.137 c -1.224,2.933 -2.633,5.834 -4.183,8.62 l 0,0 -9.38,-5.221 z m 6.445,-15.439 c 0.776,-2.673 1.41,-5.419 1.88,-8.164 l 0,0 10.578,1.815 c -0.537,3.142 -1.26,6.284 -2.148,9.345 l 0,0 -10.31,-2.996 z"
               style="fill:url(#linearGradient6047);stroke:none"
               id="path6053"
               inkscape:connector-curvature="0" /></g></g></g></g><g
       id="g6055"
       transform="translate(-271.78219,-243.51684)"><g
         id="g6057"
         clip-path="url(#clipPath6059)"><g
           id="g6063"><g
             id="g6065"><path
               d="m 438.635,357.557 c 0.081,-1.416 0.122,-2.861 0.122,-4.294 l 0,0 10.735,0 c 0,1.638 -0.047,3.286 -0.139,4.905 l 0,0 -10.718,-0.611 z"
               style="fill:url(#linearGradient6067);stroke:none"
               id="path6073"
               inkscape:connector-curvature="0" /></g></g></g></g><g
       id="g6075"
       transform="translate(-271.78219,-243.51684)"><g
         id="g6077"
         clip-path="url(#clipPath6079)"><g
           id="g6083"><g
             id="g6085"><path
               d="m 361.161,457.234 c -1.15,0 -2.083,-0.641 -2.083,-1.428 l 0,0 0,-8.703 c 0,-0.789 0.933,-1.432 2.083,-1.432 l 0,0 11.056,0 c 1.152,0 2.084,0.643 2.084,1.432 l 0,0 0,8.703 c 0,0.787 -0.932,1.428 -2.084,1.428 l 0,0 -11.056,0 z"
               style="fill:url(#linearGradient6087);stroke:none"
               id="path6093"
               inkscape:connector-curvature="0" /></g></g></g></g><g
       id="g6095"
       transform="translate(-271.78219,-243.51684)"><g
         id="g6097"
         clip-path="url(#clipPath6099)"><g
           id="g6103"><g
             id="g6105"><path
               d="m 352.158,472.081 0,-11.139 c 0,-0.789 0.641,-1.427 1.429,-1.427 l 0,0 c 0.786,0 1.422,0.638 1.422,1.427 l 0,0 0,11.139 c 0,0.787 -0.636,1.426 -1.422,1.426 l 0,0 c -0.788,0 -1.429,-0.639 -1.429,-1.426"
               style="fill:url(#linearGradient6107);stroke:none"
               id="path6113"
               inkscape:connector-curvature="0" /></g></g></g></g><g
       id="g6115"
       transform="translate(-271.78219,-243.51684)"><g
         id="g6117"
         clip-path="url(#clipPath6119)"><g
           id="g6123"><g
             id="g6125"><path
               d="m 356.53,472.081 0,-11.139 c 0,-0.789 0.635,-1.427 1.422,-1.427 l 0,0 c 0.788,0 1.427,0.638 1.427,1.427 l 0,0 0,11.139 c 0,0.787 -0.639,1.426 -1.427,1.426 l 0,0 c -0.787,0 -1.422,-0.639 -1.422,-1.426"
               style="fill:url(#linearGradient6127);stroke:none"
               id="path6133"
               inkscape:connector-curvature="0" /></g></g></g></g><g
       id="g6135"
       transform="translate(-271.78219,-243.51684)"><g
         id="g6137"
         clip-path="url(#clipPath6139)"><g
           id="g6143"><g
             id="g6145"><path
               d="m 360.896,472.081 0,-11.139 c 0,-0.789 0.638,-1.427 1.426,-1.427 l 0,0 c 0.788,0 1.424,0.638 1.424,1.427 l 0,0 0,11.139 c 0,0.787 -0.636,1.426 -1.424,1.426 l 0,0 c -0.788,0 -1.426,-0.639 -1.426,-1.426"
               style="fill:url(#linearGradient6147);stroke:none"
               id="path6153"
               inkscape:connector-curvature="0" /></g></g></g></g><g
       id="g6155"
       transform="translate(-271.78219,-243.51684)"><g
         id="g6157"
         clip-path="url(#clipPath6159)"><g
           id="g6163"><g
             id="g6165"><path
               d="m 365.266,472.081 0,-11.139 c 0,-0.789 0.637,-1.427 1.425,-1.427 l 0,0 c 0.785,0 1.422,0.638 1.422,1.427 l 0,0 0,11.139 c 0,0.787 -0.637,1.426 -1.422,1.426 l 0,0 c -0.788,0 -1.425,-0.639 -1.425,-1.426"
               style="fill:url(#linearGradient6167);stroke:none"
               id="path6173"
               inkscape:connector-curvature="0" /></g></g></g></g><g
       id="g6175"
       transform="translate(-271.78219,-243.51684)"><g
         id="g6177"
         clip-path="url(#clipPath6179)"><g
           id="g6183"><g
             id="g6185"><path
               d="m 369.633,472.081 0,-11.139 c 0,-0.789 0.639,-1.427 1.423,-1.427 l 0,0 c 0.79,0 1.429,0.638 1.429,1.427 l 0,0 0,11.139 c 0,0.787 -0.639,1.426 -1.429,1.426 l 0,0 c -0.784,0 -1.423,-0.639 -1.423,-1.426"
               style="fill:url(#linearGradient6187);stroke:none"
               id="path6193"
               inkscape:connector-curvature="0" /></g></g></g></g><g
       id="g6195"
       transform="translate(-271.78219,-243.51684)"><g
         id="g6197"
         clip-path="url(#clipPath6199)"><g
           id="g6203"><g
             id="g6205"><path
               d="m 374.003,472.081 0,-11.139 c 0,-0.789 0.635,-1.427 1.424,-1.427 l 0,0 c 0.787,0 1.425,0.638 1.425,1.427 l 0,0 0,11.139 c 0,0.787 -0.638,1.426 -1.425,1.426 l 0,0 c -0.789,0 -1.424,-0.639 -1.424,-1.426"
               style="fill:url(#linearGradient6207);stroke:none"
               id="path6213"
               inkscape:connector-curvature="0" /></g></g></g></g><g
       id="g6215"
       transform="translate(-271.78219,-243.51684)"><g
         id="g6217"
         clip-path="url(#clipPath6219)"><g
           id="g6223"><g
             id="g6225"><path
               d="m 378.371,472.081 0,-11.139 c 0,-0.789 0.637,-1.427 1.422,-1.427 l 0,0 c 0.789,0 1.426,0.638 1.426,1.427 l 0,0 0,11.139 c 0,0.787 -0.637,1.426 -1.426,1.426 l 0,0 c -0.785,0 -1.422,-0.639 -1.422,-1.426"
               style="fill:url(#linearGradient6227);stroke:none"
               id="path6233"
               inkscape:connector-curvature="0" /></g></g></g></g><g
       id="g6235"
       transform="translate(-271.78219,-243.51684)"><g
         id="g6237"
         clip-path="url(#clipPath6239)"><g
           id="g6243"><g
             id="g6245"><path
               d="m 356.72,356.262 c 0,-5.506 4.466,-9.966 9.971,-9.966 l 0,0 c 5.502,0 9.967,4.46 9.967,9.966 l 0,0 c 0,5.503 -4.465,9.967 -9.967,9.967 l 0,0 c -5.505,0 -9.971,-4.464 -9.971,-9.967"
               style="fill:url(#linearGradient6247);stroke:none"
               id="path6253"
               inkscape:connector-curvature="0" /></g></g></g></g><g
       id="g6255"
       transform="translate(-271.78219,-243.51684)"><g
         id="g6257"
         clip-path="url(#clipPath6259)"><g
           id="g6263"><g
             id="g6265"><path
               d="m 362.91,351.689 6.849,-0.202 -4.929,61.407 -1.92,-61.205 z"
               style="fill:url(#linearGradient6267);stroke:none"
               id="path6273"
               inkscape:connector-curvature="0" /></g></g></g></g><g
       id="g6275"
       transform="translate(-271.78219,-243.51684)"><g
         id="g6277"
         clip-path="url(#clipPath6279)"><g
           id="g6283"><g
             id="g6285"><path
               d="m 277.539,353.263 12.269,0 c 0,40.854 33.236,74.091 74.091,74.091 l 0,0 c 3.387,0 6.134,2.747 6.134,6.135 l 0,0 c 0,3.387 -2.747,6.133 -6.134,6.133 l 0,0 c -47.62,0 -86.36,-38.741 -86.36,-86.359"
               style="fill:url(#linearGradient6287);stroke:none"
               id="path6293"
               inkscape:connector-curvature="0" /></g></g></g></g></g></svg>